<svg width="732" height="604" viewBox="0 0 732 604" fill="none" xmlns="http://www.w3.org/2000/svg">
<g clip-path="url(#clip0_272_110)">
<path d="M203.205 354.474H58.9448V489.427H203.205V354.474Z" fill="#17E8CF"/>
<path d="M262.15 536.35H0V307.551H262.15V536.35ZM1.55118 534.799H260.598V309.102H1.55118V534.799Z" fill="white"/>
<path d="M621.575 220.85C599.735 220.85 578.385 214.374 560.226 202.24C542.066 190.107 527.913 172.861 519.555 152.683C511.197 132.506 509.01 110.303 513.271 88.8823C517.532 67.462 528.049 47.7861 543.492 32.3428C558.936 16.8996 578.611 6.38261 600.032 2.12183C621.452 -2.13894 643.655 0.0478525 663.833 8.40568C684.01 16.7635 701.256 30.917 713.39 49.0763C725.524 67.2357 732 88.5852 732 110.425C731.967 139.702 720.322 167.77 699.621 188.471C678.919 209.173 650.851 220.817 621.575 220.85ZM621.575 1.63598C600.058 1.63598 579.025 8.01635 561.135 19.9703C543.244 31.9242 529.301 48.9147 521.067 68.7934C512.833 88.672 510.678 110.546 514.876 131.649C519.073 152.752 529.435 172.136 544.649 187.351C559.863 202.565 579.248 212.927 600.351 217.124C621.454 221.322 643.328 219.167 663.206 210.933C683.085 202.699 700.076 188.756 712.03 170.865C723.984 152.975 730.364 131.942 730.364 110.425C730.331 81.5825 718.859 53.9304 698.464 33.5355C678.07 13.1406 650.417 1.66846 621.575 1.63598Z" fill="white"/>
<path d="M618.303 163.593C647.667 163.593 671.471 139.789 671.471 110.425C671.471 81.0616 647.667 57.2576 618.303 57.2576C588.939 57.2576 565.135 81.0616 565.135 110.425C565.135 139.789 588.939 163.593 618.303 163.593Z" fill="#17E8CF"/>
<path d="M706.916 271.644L675.333 289.878L693.568 321.461L725.151 303.227L706.916 271.644Z" fill="#FF6584"/>
<path d="M224.916 94.6441L193.333 112.878L211.568 144.461L243.151 126.227L224.916 94.6441Z" fill="#536DFE"/>
<path d="M662.916 470.644L631.333 488.878L649.568 520.461L681.151 502.227L662.916 470.644Z" fill="#E5E5E5"/>
<path d="M144.26 408.766H117.89V435.136H144.26V408.766Z" fill="#536DFE"/>
<path d="M618.303 123.513C625.531 123.513 631.39 117.653 631.39 110.425C631.39 103.197 625.531 97.3376 618.303 97.3376C611.075 97.3376 605.216 103.197 605.216 110.425C605.216 117.653 611.075 123.513 618.303 123.513Z" fill="#536DFE"/>
<path d="M573.559 288.122L505.811 327.236L544.925 394.984L612.673 355.869L573.559 288.122Z" fill="#536DFE"/>
<path d="M403.298 574.243L443.239 574.242H443.241C449.991 574.242 456.465 576.924 461.239 581.697C466.012 586.471 468.694 592.944 468.695 599.695V600.522L403.299 600.525L403.298 574.243Z" fill="#536DFE"/>
<path d="M389.866 299.732C401.39 299.732 410.732 290.39 410.732 278.866C410.732 267.342 401.39 258 389.866 258C378.342 258 369 267.342 369 278.866C369 290.39 378.342 299.732 389.866 299.732Z" fill="#F2F2F2"/>
</g>
<defs>
<clipPath id="clip0_272_110">
<rect width="732" height="603.793" fill="white"/>
</clipPath>
</defs>
</svg>
